<mxfile host="Electron" modified="2023-10-01T08:07:14.370Z" agent="Mozilla/5.0 (Windows NT 10.0; Win64; x64) AppleWebKit/537.36 (KHTML, like Gecko) draw.io/21.6.8 Chrome/114.0.5735.289 Electron/25.5.0 Safari/537.36" etag="ghhSJBhqbYNrGXqqsOSg" version="21.6.8" type="device">
  <diagram name="Page-1" id="2YBvvXClWsGukQMizWep">
    <mxGraphModel dx="1098" dy="803" grid="1" gridSize="10" guides="1" tooltips="1" connect="1" arrows="1" fold="1" page="1" pageScale="1" pageWidth="850" pageHeight="1100" math="0" shadow="0">
      <root>
        <mxCell id="0" />
        <mxCell id="1" parent="0" />
        <mxCell id="488ZneXObKouZylOLP58-1" value=":Kernel code" style="rounded=0;whiteSpace=wrap;html=1;fontFamily=Computer Modern;shadow=1;" parent="1" vertex="1">
          <mxGeometry x="280" y="430" width="90" height="40" as="geometry" />
        </mxCell>
        <mxCell id="488ZneXObKouZylOLP58-2" value=":TRNG" style="rounded=0;whiteSpace=wrap;html=1;fontFamily=Computer Modern;shadow=1;" parent="1" vertex="1">
          <mxGeometry x="425" y="430" width="90" height="40" as="geometry" />
        </mxCell>
        <mxCell id="488ZneXObKouZylOLP58-3" value="" style="endArrow=none;dashed=1;html=1;rounded=0;entryX=0.5;entryY=1;entryDx=0;entryDy=0;" parent="1" target="488ZneXObKouZylOLP58-1" edge="1">
          <mxGeometry width="50" height="50" relative="1" as="geometry">
            <mxPoint x="325" y="620" as="sourcePoint" />
            <mxPoint x="330" y="510" as="targetPoint" />
          </mxGeometry>
        </mxCell>
        <mxCell id="488ZneXObKouZylOLP58-5" value="Dispatch" style="html=1;verticalAlign=bottom;startArrow=oval;endArrow=open;startSize=8;edgeStyle=elbowEdgeStyle;elbow=vertical;curved=0;rounded=0;fontFamily=Computer Modern;endFill=0;" parent="1" edge="1">
          <mxGeometry relative="1" as="geometry">
            <mxPoint x="259" y="500" as="sourcePoint" />
            <mxPoint x="319" y="500" as="targetPoint" />
            <Array as="points">
              <mxPoint x="289" y="500" />
            </Array>
          </mxGeometry>
        </mxCell>
        <mxCell id="488ZneXObKouZylOLP58-6" value="" style="rounded=0;whiteSpace=wrap;html=1;" parent="1" vertex="1">
          <mxGeometry x="320" y="490" width="10" height="110" as="geometry" />
        </mxCell>
        <mxCell id="488ZneXObKouZylOLP58-7" value="" style="endArrow=none;dashed=1;html=1;rounded=0;entryX=0.5;entryY=1;entryDx=0;entryDy=0;" parent="1" target="488ZneXObKouZylOLP58-2" edge="1">
          <mxGeometry width="50" height="50" relative="1" as="geometry">
            <mxPoint x="470" y="620" as="sourcePoint" />
            <mxPoint x="480" y="490" as="targetPoint" />
          </mxGeometry>
        </mxCell>
        <mxCell id="488ZneXObKouZylOLP58-8" value="" style="rounded=0;whiteSpace=wrap;html=1;" parent="1" vertex="1">
          <mxGeometry x="465" y="490" width="10" height="110" as="geometry" />
        </mxCell>
        <mxCell id="488ZneXObKouZylOLP58-10" value="Enable&amp;nbsp;" style="html=1;verticalAlign=bottom;endArrow=open;edgeStyle=elbowEdgeStyle;elbow=vertical;curved=0;rounded=0;entryX=-0.008;entryY=0.201;entryDx=0;entryDy=0;entryPerimeter=0;fontFamily=Computer Modern;endFill=0;" parent="1" edge="1">
          <mxGeometry relative="1" as="geometry">
            <mxPoint x="330" y="511" as="sourcePoint" />
            <Array as="points">
              <mxPoint x="415" y="511" />
            </Array>
            <mxPoint x="464.91999999999996" y="511.15" as="targetPoint" />
          </mxGeometry>
        </mxCell>
        <mxCell id="488ZneXObKouZylOLP58-11" value="Get random number" style="html=1;verticalAlign=bottom;endArrow=open;edgeStyle=elbowEdgeStyle;elbow=vertical;curved=0;rounded=0;entryX=-0.008;entryY=0.201;entryDx=0;entryDy=0;entryPerimeter=0;fontFamily=Computer Modern;endFill=0;" parent="1" edge="1">
          <mxGeometry relative="1" as="geometry">
            <mxPoint x="330" y="541" as="sourcePoint" />
            <Array as="points">
              <mxPoint x="415" y="541" />
            </Array>
            <mxPoint x="465" y="541" as="targetPoint" />
          </mxGeometry>
        </mxCell>
        <mxCell id="488ZneXObKouZylOLP58-12" value="Random number" style="html=1;verticalAlign=bottom;endArrow=none;edgeStyle=elbowEdgeStyle;elbow=vertical;curved=0;rounded=0;entryX=-0.008;entryY=0.201;entryDx=0;entryDy=0;entryPerimeter=0;dashed=1;startArrow=open;startFill=0;endFill=0;fontFamily=Computer Modern;" parent="1" edge="1">
          <mxGeometry relative="1" as="geometry">
            <mxPoint x="330" y="571" as="sourcePoint" />
            <Array as="points">
              <mxPoint x="415" y="571" />
            </Array>
            <mxPoint x="465" y="571" as="targetPoint" />
          </mxGeometry>
        </mxCell>
        <mxCell id="488ZneXObKouZylOLP58-13" value="1" style="ellipse;whiteSpace=wrap;html=1;aspect=fixed;fontFamily=Computer Modern;" parent="1" vertex="1">
          <mxGeometry x="490" y="500" width="20" height="20" as="geometry" />
        </mxCell>
        <mxCell id="488ZneXObKouZylOLP58-14" value="2" style="ellipse;whiteSpace=wrap;html=1;aspect=fixed;fontFamily=Computer Modern;" parent="1" vertex="1">
          <mxGeometry x="490" y="549" width="20" height="20" as="geometry" />
        </mxCell>
      </root>
    </mxGraphModel>
  </diagram>
</mxfile>
